<?xml version="1.0" encoding="UTF-8"?>
<svg version="1.1" xmlns="http://www.w3.org/2000/svg" width="321" height="360">
<path d="M0 0 C5.02691279 2.63008077 9.66035289 6.02365872 13.44140625 10.27734375 C13.44140625 10.93734375 13.44140625 11.59734375 13.44140625 12.27734375 C14.43140625 12.60734375 15.42140625 12.93734375 16.44140625 13.27734375 C18.046875 15.67578125 18.046875 15.67578125 19.62890625 18.65234375 C20.15871094 19.62945312 20.68851563 20.6065625 21.234375 21.61328125 C22.44140625 24.27734375 22.44140625 24.27734375 22.44140625 27.27734375 C23.41078125 26.82359375 24.38015625 26.36984375 25.37890625 25.90234375 C36.16325568 21.36947975 48.90658407 20.27166862 60.0625 24.16796875 C70.17673336 28.88462273 77.27903727 35.93503829 81.44140625 46.27734375 C85.47126614 58.39581131 84.22228209 70.58435826 79.44140625 82.27734375 C79.11140625 82.60734375 78.78140625 82.93734375 78.44140625 83.27734375 C83.06140625 85.58734375 87.68140625 87.89734375 92.44140625 90.27734375 C92.44140625 90.93734375 92.44140625 91.59734375 92.44140625 92.27734375 C93.76140625 92.60734375 95.08140625 92.93734375 96.44140625 93.27734375 C96.44140625 93.93734375 96.44140625 94.59734375 96.44140625 95.27734375 C97.02921875 95.5196875 97.61703125 95.76203125 98.22265625 96.01171875 C104.77543602 99.749572 107.81391372 107.57908573 109.87890625 114.46484375 C112.80003156 125.15934017 111.12467236 134.61279872 105.78125 144.28125 C100.55876785 151.99164972 93.40976248 159.08989607 84.25390625 161.77734375 C83.32578125 161.94234375 82.39765625 162.10734375 81.44140625 162.27734375 C81.71855469 162.98117188 81.99570312 163.685 82.28125 164.41015625 C86.41378667 175.67536296 88.1462266 187.62853361 84.44140625 199.27734375 C82.97534108 202.42022097 81.32435064 205.36668544 79.44140625 208.27734375 C78.78140625 208.27734375 78.12140625 208.27734375 77.44140625 208.27734375 C77.33505859 209.15712891 77.33505859 209.15712891 77.2265625 210.0546875 C75.44002834 215.11209016 68.83372724 218.11679574 64.2109375 220.359375 C50.87337147 225.59636901 36.41382714 223.7822456 23.44140625 218.27734375 C23.32152344 219.00179687 23.20164063 219.72625 23.078125 220.47265625 C20.53715366 231.66540118 13.25259164 239.63243607 3.921875 245.765625 C-4.66790715 251.00065759 -13.66690076 251.37371965 -23.55859375 250.27734375 C-36.78153549 247.04211961 -45.2312822 237.87903673 -52.17578125 226.73046875 C-53.55859375 224.27734375 -53.55859375 224.27734375 -54.55859375 221.27734375 C-55.48671875 221.73109375 -56.41484375 222.18484375 -57.37109375 222.65234375 C-68.68008392 227.49249979 -80.04988907 227.00339957 -91.55859375 223.27734375 C-101.82619788 219.02867997 -108.32430986 212.01934432 -112.6484375 201.890625 C-116.51066116 190.80123603 -114.84423702 179.27488547 -111.55859375 168.27734375 C-111.21793093 166.94586422 -110.88158719 165.61321954 -110.55859375 164.27734375 C-111.30882813 163.93703125 -112.0590625 163.59671875 -112.83203125 163.24609375 C-125.45947165 157.26634868 -134.62146097 150.34714819 -140.4296875 137.32421875 C-143.06070544 128.97754115 -142.97096855 117.62237767 -139.75 109.484375 C-137.19735445 104.75570373 -134.10895722 100.31013453 -130.55859375 96.27734375 C-129.89859375 96.27734375 -129.23859375 96.27734375 -128.55859375 96.27734375 C-128.22859375 95.28734375 -127.89859375 94.29734375 -127.55859375 93.27734375 C-125.4140625 91.7421875 -125.4140625 91.7421875 -122.74609375 90.21484375 C-121.87339844 89.70824219 -121.00070313 89.20164062 -120.1015625 88.6796875 C-117.94306633 87.48936473 -115.77414977 86.35671719 -113.55859375 85.27734375 C-113.76355469 84.64570313 -113.96851562 84.0140625 -114.1796875 83.36328125 C-118.00376032 70.66516384 -119.65943758 56.75145921 -113.37109375 44.58984375 C-110.65815563 40.12999889 -107.51288564 35.71626585 -103.55859375 32.27734375 C-102.56859375 32.27734375 -101.57859375 32.27734375 -100.55859375 32.27734375 C-100.55859375 31.61734375 -100.55859375 30.95734375 -100.55859375 30.27734375 C-98.47640326 29.46191944 -96.39279614 28.65011186 -94.30859375 27.83984375 C-93.1484375 27.38738281 -91.98828125 26.93492188 -90.79296875 26.46875 C-78.6773807 22.00588242 -68.34916213 25.33422604 -56.55859375 29.27734375 C-55.89859375 29.60734375 -55.23859375 29.93734375 -54.55859375 30.27734375 C-54.39359375 29.01921875 -54.22859375 27.76109375 -54.05859375 26.46484375 C-51.92761479 16.935466 -44.3623354 8.82330384 -36.55859375 3.27734375 C-33.96231138 1.74558532 -31.33521791 0.44674035 -28.55859375 -0.72265625 C-27.80191406 -1.07972656 -27.04523438 -1.43679687 -26.265625 -1.8046875 C-17.97680906 -4.61546924 -7.92694955 -3.31963163 0 0 Z M-37.76171875 23.78515625 C-40.57908777 27.69272459 -42.64408928 31.86846086 -44.55859375 36.27734375 C-41.9254215 40.42383338 -39.16366494 43.90734051 -35.74609375 47.46484375 C-26.9467835 57.06526595 -22.00296599 67.21404767 -17.55859375 79.27734375 C-16.89859375 79.27734375 -16.23859375 79.27734375 -15.55859375 79.27734375 C-15.44644531 78.74109375 -15.33429688 78.20484375 -15.21875 77.65234375 C-13.47846142 70.73668719 -10.36629568 64.99996102 -6.78344727 58.90039062 C-4.74461515 55.42793132 -2.9218174 52.08700118 -1.55859375 48.27734375 C-0.89859375 48.27734375 -0.23859375 48.27734375 0.44140625 48.27734375 C1.85402154 46.65632587 1.85402154 46.65632587 3.25390625 44.58984375 C5.19186525 41.87861047 6.89051075 39.86646091 9.37890625 37.58984375 C10.05953125 36.82671875 10.74015625 36.06359375 11.44140625 35.27734375 C10.83162999 28.30518502 6.01953299 22.42751891 0.94140625 17.90234375 C-5.33808403 12.63865337 -11.06865035 11.66424061 -19.0859375 11.875 C-27.40176603 12.8384762 -32.51414221 17.55103532 -37.76171875 23.78515625 Z M26.44140625 40.27734375 C26.40700439 40.97593506 26.37260254 41.67452637 26.3371582 42.39428711 C25.38869389 60.30041112 23.41039102 76.04422663 15.44140625 92.27734375 C19.07842595 91.71833313 22.22799074 90.60908236 25.6027832 89.15722656 C32.83923996 86.04593117 39.57675568 84.14199539 47.44140625 83.27734375 C49.02348088 83.09281944 50.60550856 82.90789239 52.1875 82.72265625 C56.6028633 82.2144006 61.02094499 81.73903637 65.44140625 81.27734375 C70.25090682 72.34541411 71.39854934 62.01476553 68.55859375 52.23828125 C65.36838639 45.2451777 59.96314068 39.50272021 52.64453125 36.75 C43.03228604 34.68779846 35.21620094 36.37878828 26.44140625 40.27734375 Z M-97.55859375 47.27734375 C-102.35293012 53.13708821 -103.9108921 58.81091024 -103.30078125 66.2734375 C-102.601728 74.61130454 -102.601728 74.61130454 -99.55859375 82.27734375 C-99.01074219 82.25414062 -98.46289062 82.2309375 -97.8984375 82.20703125 C-89.99329168 82.02707671 -82.35862856 83.06757696 -74.55859375 84.27734375 C-73.65882812 84.41011719 -72.7590625 84.54289062 -71.83203125 84.6796875 C-65.79131372 85.71270923 -60.31017481 87.76685288 -54.63671875 90.05859375 C-51.64026165 91.24500824 -48.62442161 92.28599822 -45.55859375 93.27734375 C-46.04779297 92.36855469 -46.04779297 92.36855469 -46.546875 91.44140625 C-49.6464356 85.49829595 -51.89050771 79.76013268 -53.55859375 73.27734375 C-53.82671875 72.313125 -54.09484375 71.34890625 -54.37109375 70.35546875 C-56.69930508 61.35603648 -57.23752382 52.52194353 -57.55859375 43.27734375 C-71.02563159 37.20397374 -86.39122455 36.36377839 -97.55859375 47.27734375 Z M9.44140625 50.27734375 C9.44140625 50.93734375 9.44140625 51.59734375 9.44140625 52.27734375 C8.12140625 52.93734375 6.80140625 53.59734375 5.44140625 54.27734375 C5.44140625 54.93734375 5.44140625 55.59734375 5.44140625 56.27734375 C4.85875 56.51453125 4.27609375 56.75171875 3.67578125 56.99609375 C-3.70912025 61.23079251 -7.6399437 71.05631511 -10.99609375 78.52734375 C-11.33801758 79.28337891 -11.67994141 80.03941406 -12.03222656 80.81835938 C-13.98483307 85.34332136 -15.09752561 89.3679422 -15.55859375 94.27734375 C-17.17234692 91.18127431 -18.46728764 88.02455108 -19.74609375 84.77734375 C-25.53171677 70.91208974 -33.63973 59.52054421 -45.55859375 50.27734375 C-46.21859375 50.27734375 -46.87859375 50.27734375 -47.55859375 50.27734375 C-48.02061645 67.8744852 -47.46861078 82.7273755 -38.24609375 98.21484375 C-37.68921875 99.22546875 -37.13234375 100.23609375 -36.55859375 101.27734375 C-37.05359375 102.26734375 -37.05359375 102.26734375 -37.55859375 103.27734375 C-38.23341797 102.80554688 -38.23341797 102.80554688 -38.921875 102.32421875 C-44.49411991 98.61683336 -50.19701358 96.30349376 -56.55859375 94.27734375 C-58.20794922 93.74753906 -58.20794922 93.74753906 -59.890625 93.20703125 C-63.83433566 92.20745389 -67.63815311 91.79037105 -71.68359375 91.58984375 C-72.41698975 91.54931885 -73.15038574 91.50879395 -73.90600586 91.46704102 C-80.50805879 91.1626174 -86.99129691 91.53495367 -93.55859375 92.27734375 C-86.95031829 102.25946449 -77.83819377 110.21698255 -67.55859375 116.27734375 C-66.95015625 116.6434375 -66.34171875 117.00953125 -65.71484375 117.38671875 C-59.4349373 120.84598925 -52.44769421 122.45831161 -45.55859375 124.27734375 C-49.09801027 126.17978013 -52.78923967 127.46167367 -56.55859375 128.83984375 C-64.29394919 131.80276283 -70.17585293 135.9744624 -76.55859375 141.27734375 C-77.41710937 141.94378906 -78.275625 142.61023438 -79.16015625 143.296875 C-81.44377437 145.18253361 -83.36617703 147.10950243 -85.30859375 149.33984375 C-85.9015625 150.01144531 -86.49453125 150.68304688 -87.10546875 151.375 C-88.75235796 153.31767811 -88.75235796 153.31767811 -89.55859375 156.27734375 C-72.07059509 156.84224369 -57.11860079 156.86862079 -41.73046875 147.44921875 C-39.55859375 146.27734375 -39.55859375 146.27734375 -36.55859375 146.27734375 C-37.0175 147.10234375 -37.47640625 147.92734375 -37.94921875 148.77734375 C-46.16802229 164.24803276 -49.98606542 180.6791941 -47.55859375 198.27734375 C-46.89859375 199.26734375 -46.23859375 200.25734375 -45.55859375 201.27734375 C-32.73280148 192.99474765 -21.74427831 178.01923277 -17.55859375 163.27734375 C-17.01918741 159.94490964 -16.70207105 156.64906028 -16.55859375 153.27734375 C-15.56859375 153.27734375 -14.57859375 153.27734375 -13.55859375 153.27734375 C-13.47609375 154.24671875 -13.39359375 155.21609375 -13.30859375 156.21484375 C-12.63595663 160.96174001 -10.65415217 165.00674022 -8.55859375 169.27734375 C-8.09324219 170.25058594 -7.62789063 171.22382813 -7.1484375 172.2265625 C-2.16828453 181.78307225 6.23211941 193.94542158 16.44140625 198.27734375 C20.35886781 179.10869594 13.41901635 160.85977406 4.44140625 144.27734375 C5.42238281 144.8084375 6.40335937 145.33953125 7.4140625 145.88671875 C24.5203967 154.94502785 40.08249784 157.84045864 59.44140625 156.27734375 C60.10140625 155.94734375 60.76140625 155.61734375 61.44140625 155.27734375 C60.23759177 152.78372804 58.98711903 150.59591292 57.44140625 148.27734375 C56.78140625 148.27734375 56.12140625 148.27734375 55.44140625 148.27734375 C55.23515625 147.72046875 55.02890625 147.16359375 54.81640625 146.58984375 C52.86457593 143.30722004 50.49909631 141.57061129 47.44140625 139.27734375 C46.78140625 139.27734375 46.12140625 139.27734375 45.44140625 139.27734375 C45.44140625 138.61734375 45.44140625 137.95734375 45.44140625 137.27734375 C30.45229504 127.87477374 30.45229504 127.87477374 13.44140625 124.27734375 C13.77140625 123.61734375 14.10140625 122.95734375 14.44140625 122.27734375 C15.94678751 121.8623795 17.47305458 121.52283924 19.00390625 121.21484375 C28.12395097 118.90491116 38.32879874 113.53498309 45.44140625 107.27734375 C45.44140625 106.61734375 45.44140625 105.95734375 45.44140625 105.27734375 C46.0034375 105.05175781 46.56546875 104.82617188 47.14453125 104.59375 C50.10093554 102.89934822 51.94332307 100.76781402 54.19140625 98.21484375 C54.990625 97.31636719 55.78984375 96.41789062 56.61328125 95.4921875 C58.54750042 93.62744974 58.54750042 93.62744974 58.44140625 92.27734375 C41.58139524 90.27019958 24.91120603 91.39403129 10.4296875 101.0078125 C8.44140625 102.27734375 8.44140625 102.27734375 5.44140625 103.27734375 C6.69507358 99.99940625 8.12482757 96.97304391 9.81640625 93.90234375 C17.10391112 79.49981933 18.78334188 63.08540922 16.44140625 47.27734375 C12.92108197 47.27734375 12.00287195 47.98085726 9.44140625 50.27734375 Z M-119.734375 105.2421875 C-125.37592477 111.34279271 -128.22762451 117.6003269 -127.91015625 125.984375 C-127.27090861 130.15369014 -125.58345265 133.61234914 -123.55859375 137.27734375 C-123.254375 137.88449219 -122.95015625 138.49164063 -122.63671875 139.1171875 C-118.9400764 145.38726164 -111.97198015 149.22146038 -105.55859375 152.27734375 C-102.9482274 152.8983279 -102.9482274 152.8983279 -100.55859375 152.27734375 C-98.48698712 150.66199857 -98.48698712 150.66199857 -96.62109375 148.40234375 C-86.86447608 138.14580021 -75.42240315 131.84007214 -62.55859375 126.27734375 C-61.2192859 125.62276242 -59.88257774 124.96239019 -58.55859375 124.27734375 C-59.09484375 124.15359375 -59.63109375 124.02984375 -60.18359375 123.90234375 C-76.61732342 119.57767805 -91.24326613 110.31653715 -102.78125 97.96484375 C-107.54600518 93.44094432 -115.92249815 101.79986424 -119.734375 105.2421875 Z M68.21875 97.4765625 C67.30222656 98.40082031 66.38570312 99.32507813 65.44140625 100.27734375 C54.7311017 110.06186936 43.20825772 117.45577365 29.44140625 122.27734375 C29.44140625 122.93734375 29.44140625 123.59734375 29.44140625 124.27734375 C29.98667969 124.4475 30.53195313 124.61765625 31.09375 124.79296875 C47.8822875 130.18825943 62.21882733 139.54549071 74.44140625 152.27734375 C84.8177108 146.26477276 92.33015514 141.06535577 96.44140625 129.27734375 C97.46924039 122.05860162 95.83653571 116.6040107 92.44140625 110.27734375 C91.94640625 109.28734375 91.94640625 109.28734375 91.44140625 108.27734375 C90.78140625 108.27734375 90.12140625 108.27734375 89.44140625 108.27734375 C89.19777344 107.68050781 88.95414063 107.08367187 88.703125 106.46875 C85.35885367 100.66027874 77.50719566 97.55201478 71.44140625 95.27734375 C70.03875008 95.16011892 70.03875008 95.16011892 68.21875 97.4765625 Z M-47.55859375 155.27734375 C-48.57179687 155.68726563 -49.585 156.0971875 -50.62890625 156.51953125 C-51.98043115 157.06389545 -53.33199577 157.60816104 -54.68359375 158.15234375 C-55.34875 158.42175781 -56.01390625 158.69117188 -56.69921875 158.96875 C-69.69351027 164.19194561 -82.66103028 165.4747489 -96.55859375 166.27734375 C-100.62692796 176.1939084 -103.06403547 186.860083 -98.99609375 197.21484375 C-95.16579656 204.39498274 -89.90779785 208.93282235 -82.2265625 211.6171875 C-73.23422924 213.84223043 -65.89569808 211.88955143 -57.55859375 208.27734375 C-57.54441406 207.07722656 -57.53023437 205.87710938 -57.515625 204.640625 C-57.14549314 189.16723118 -55.52764624 172.46244594 -47.37890625 158.921875 C-47.10820312 158.37917969 -46.8375 157.83648437 -46.55859375 157.27734375 C-47.05359375 156.28734375 -47.05359375 156.28734375 -47.55859375 155.27734375 Z M16.44140625 156.27734375 C17.53620837 159.60912134 18.67366879 162.91794332 19.87890625 166.2109375 C24.32451013 178.80587668 25.79176033 190.97395929 26.44140625 204.27734375 C27.88984897 204.93011011 29.33925166 205.58074669 30.7890625 206.23046875 C31.99961304 206.77429199 31.99961304 206.77429199 33.23461914 207.32910156 C40.72618293 210.5481782 49.70548553 210.24535177 57.2734375 207.37890625 C64.23311674 203.8426368 68.78132322 198.56627182 71.44140625 191.27734375 C73.99512358 182.70782252 72.09330193 174.58030284 69.44140625 166.27734375 C68.38824219 166.22835937 67.33507812 166.179375 66.25 166.12890625 C31.62227746 164.39792456 31.62227746 164.39792456 19.44140625 156.27734375 C18.45140625 156.27734375 17.46140625 156.27734375 16.44140625 156.27734375 Z M-14.55859375 168.27734375 C-14.84992188 169.004375 -15.14125 169.73140625 -15.44140625 170.48046875 C-20.53034639 182.96277475 -26.10550332 193.71488695 -34.55859375 204.27734375 C-35.08066406 204.9425 -35.60273438 205.60765625 -36.140625 206.29296875 C-38.15155511 208.79599958 -39.85775418 210.47678404 -42.55859375 212.27734375 C-41.68929023 219.75335399 -38.04486894 225.37409752 -32.26953125 230.18359375 C-25.54496464 234.77159237 -19.75751504 237.28102728 -11.55859375 236.27734375 C-3.33607934 234.35402405 2.31502334 229.88511488 7.44140625 223.27734375 C9.8052243 219.42058799 11.96205982 215.56101645 13.44140625 211.27734375 C12.30357999 207.86386498 10.84487222 206.92654841 8.11279297 204.74121094 C5.14643564 202.14315681 2.85454173 199.0523639 0.50390625 195.90234375 C-0.27605713 194.86255371 -0.27605713 194.86255371 -1.07177734 193.80175781 C-5.99097888 187.03766432 -9.33030036 179.97112082 -12.55859375 172.27734375 C-13.21139043 170.93716514 -13.87105588 169.60003566 -14.55859375 168.27734375 Z " fill="#E2E9F1" transform="translate(176.55859375,59.72265625)"/>
<path d="M0 0 C3.90038227 0.5760351 6.53181659 1.75555694 9.875 3.8125 C24.17155922 11.68980945 39.0700822 11.77042235 55 12 C55 12.33 55 12.66 55 13 C50.91680782 13.0885085 46.83386837 13.14089063 42.75 13.1875 C41.04070312 13.22520508 41.04070312 13.22520508 39.296875 13.26367188 C30.1114264 13.34195695 21.20337617 12.43526636 13 8 C13 8.99 13 9.98 13 11 C14.32 11.33 15.64 11.66 17 12 C16.01 12.495 16.01 12.495 15 13 C14.01 12.67 13.02 12.34 12 12 C12.33 13.32 12.66 14.64 13 16 C11.68 15.34 10.36 14.68 9 14 C9.33 16.97 9.66 19.94 10 23 C9.67 23 9.34 23 9 23 C8.62875 21.7625 8.2575 20.525 7.875 19.25 C6.16684552 14.05952093 3.74226083 9.33379617 1.20703125 4.50390625 C0 2 0 2 0 0 Z " fill="#D0DAEC" transform="translate(181,204)"/>
<path d="M0 0 C0.33 1.32 0.66 2.64 1 4 C0.34 4 -0.32 4 -1 4 C-0.67 4.99 -0.34 5.98 0 7 C1.32 6.67 2.64 6.34 4 6 C3.01279408 8.487936 2.01400045 10.96713858 0.96484375 13.4296875 C-1.09889505 18.34185665 -2.53792456 22.6861324 -3 28 C-3.99 28 -4.98 28 -6 28 C-6.33773437 26.97519531 -6.67546875 25.95039063 -7.0234375 24.89453125 C-7.4738774 23.53382737 -7.92440276 22.17315178 -8.375 20.8125 C-8.59671875 20.13896484 -8.8184375 19.46542969 -9.046875 18.77148438 C-10.25467932 15.13030959 -11.52780972 11.54288783 -13 8 C-11.68 9.32 -10.36 10.64 -9 12 C-9 9.69 -9 7.38 -9 5 C-6.4345406 7.5654594 -6.45953913 9.47686668 -6 13 C-5.34 13 -4.68 13 -4 13 C-3.87882813 12.31292969 -3.75765625 11.62585938 -3.6328125 10.91796875 C-3.46523437 10.01691406 -3.29765625 9.11585938 -3.125 8.1875 C-2.96257812 7.29417969 -2.80015625 6.40085938 -2.6328125 5.48046875 C-2 3 -2 3 0 0 Z " fill="#86A0C6" transform="translate(165,126)"/>
<path d="M0 0 C0.99 0 1.98 0 3 0 C3.83887056 2.43572059 4.67126529 4.87333217 5.5 7.3125 C5.73847656 8.00279297 5.97695312 8.69308594 6.22265625 9.40429688 C7.23208263 12.38931489 8 14.82658914 8 18 C7.01 17.34 6.02 16.68 5 16 C5.33 18.31 5.66 20.62 6 23 C4.10786631 20.61426621 2.97608217 18.92824652 2 16 C0.68 19.63 -0.64 23.26 -2 27 C-2.95904856 23.16380575 -2.91892116 21.67568464 -2 18 C-3.65 19.65 -5.3 21.3 -7 23 C-5.988665 19.810405 -4.90379395 16.79155355 -3.5 13.75 C-1.55268893 9.35125164 -0.80689805 4.71798039 0 0 Z " fill="#9FB6CE" transform="translate(160,213)"/>
<path d="M0 0 C0.99 0.33 1.98 0.66 3 1 C2.51789063 2.01320312 2.03578125 3.02640625 1.5390625 4.0703125 C0.90086422 5.42179122 0.26285332 6.77335844 -0.375 8.125 C-0.69210938 8.79015625 -1.00921875 9.4553125 -1.3359375 10.140625 C-3.16675254 14.03110695 -4.72966893 17.88104776 -6 22 C-6.33 22 -6.66 22 -7 22 C-7.33 20.35 -7.66 18.7 -8 17 C-9.32 18.32 -10.64 19.64 -12 21 C-10.125 14.25 -10.125 14.25 -9 12 C-10.65 12.33 -12.3 12.66 -14 13 C-13.34 11.68 -12.68 10.36 -12 9 C-13.65 9 -15.3 9 -17 9 C-17 8.67 -17 8.34 -17 8 C-15.824375 7.6596875 -15.824375 7.6596875 -14.625 7.3125 C-6.76559077 4.60058708 -6.76559077 4.60058708 0 0 Z " fill="#C3D3E8" transform="translate(138,204)"/>
<path d="M0 0 C0.33 0 0.66 0 1 0 C1.14285714 8.57142857 1.14285714 8.57142857 0 12 C0.99 12 1.98 12 3 12 C2.34 13.98 1.68 15.96 1 18 C2.32 18.33 3.64 18.66 5 19 C2.36 20.65 -0.28 22.3 -3 24 C-1.02 23.67 0.96 23.34 3 23 C0.84767979 25.28684023 -1.36056945 27.05036669 -4 28.75 C-4.680625 29.19859375 -5.36125 29.6471875 -6.0625 30.109375 C-8 31 -8 31 -11 30 C-9.74633267 26.7220625 -8.31657868 23.69570016 -6.625 20.625 C-3.28310292 14.08003835 -1.69638877 7.10777419 0 0 Z " fill="#93B4CA" transform="translate(192,133)"/>
<path d="M0 0 C5.45479185 0.56820748 9.91059256 1.94637945 15 4 C14 6 14 6 11.41796875 7 C9.81888672 7.495 9.81888672 7.495 8.1875 8 C3.8801876 9.32059267 3.8801876 9.32059267 -0.19921875 11.1875 C-2 12 -2 12 -5 11 C-4.34 10.01 -3.68 9.02 -3 8 C-3.66 7.34 -4.32 6.68 -5 6 C-4.34 5.67 -3.68 5.34 -3 5 C-4.98 4.01 -6.96 3.02 -9 2 C-5.42355152 0.7619986 -2.66305234 1.25073929 1 2 C0.67 1.34 0.34 0.68 0 0 Z " fill="#97ACC5" transform="translate(117,180)"/>
<path d="M0 0 C0.66 0.33 1.32 0.66 2 1 C1.67 1.66 1.34 2.32 1 3 C1.99 3.66 2.98 4.32 4 5 C2.68 5.33 1.36 5.66 0 6 C0 6.66 0 7.32 0 8 C1.299375 8.12375 2.59875 8.2475 3.9375 8.375 C6.15234375 8.5859375 6.15234375 8.5859375 8 9 C8.33 9.66 8.66 10.32 9 11 C8.28714844 10.84402344 7.57429688 10.68804687 6.83984375 10.52734375 C1.1228009 9.36546828 -3.2033972 9.10821495 -9 10 C-11.45333169 9.54030274 -13.63141724 8.8217532 -16 8 C-15.67 7.01 -15.34 6.02 -15 5 C-12.63671875 4.12109375 -12.63671875 4.12109375 -9.6875 3.4375 C-5.60647971 2.47759671 -5.60647971 2.47759671 -1.76953125 0.84765625 C-1.18558594 0.56792969 -0.60164062 0.28820312 0 0 Z " fill="#A3BBD8" transform="translate(206,176)"/>
<path d="M0 0 C2.10170504 2.10170504 2.80278296 3.60102755 3.9375 6.3125 C5.09624251 9.02639693 6.23144389 11.3671179 7.8125 13.875 C8.204375 14.57625 8.59625 15.2775 9 16 C8.67 16.99 8.34 17.98 8 19 C6.01729088 18.04901734 4.03891621 17.08899297 2.0625 16.125 C0.96035156 15.59132812 -0.14179688 15.05765625 -1.27734375 14.5078125 C-4 13 -4 13 -5 11 C-4.01 10.67 -3.02 10.34 -2 10 C-3.32 9.34 -4.64 8.68 -6 8 C-5.67 7.34 -5.34 6.68 -5 6 C-2.03 6.495 -2.03 6.495 1 7 C0.67 4.69 0.34 2.38 0 0 Z " fill="#BBD0DD" transform="translate(132,145)"/>
<path d="M0 0 C0.33 1.32 0.66 2.64 1 4 C0.34 4 -0.32 4 -1 4 C-0.67 4.99 -0.34 5.98 0 7 C1.32 6.67 2.64 6.34 4 6 C2 11 0 16 -2 21 C-2.66 21 -3.32 21 -4 21 C-4.33 22.32 -4.66 23.64 -5 25 C-6.125 21.25 -6.125 21.25 -5 19 C-4.6841945 17.10803796 -4.39659922 15.21131209 -4.125 13.3125 C-3.3456964 8.4064296 -2.21492848 4.42985695 0 0 Z " fill="#A5B6D8" transform="translate(165,126)"/>
<path d="M0 0 C0.70125 0.19335938 1.4025 0.38671875 2.125 0.5859375 C3.548125 0.97652344 3.548125 0.97652344 5 1.375 C6.3921875 1.75785156 6.3921875 1.75785156 7.8125 2.1484375 C8.864375 2.42945313 9.91625 2.71046875 11 3 C12.77890625 3.5259375 12.77890625 3.5259375 14.59375 4.0625 C20.15186515 5.44276526 25.80057857 5.46138025 31.5 5.625 C32.60859375 5.66367188 33.7171875 5.70234375 34.859375 5.7421875 C37.57275797 5.83575243 40.28614661 5.92149483 43 6 C43 6.33 43 6.66 43 7 C38.91680782 7.0885085 34.83386837 7.14089063 30.75 7.1875 C29.61046875 7.21263672 28.4709375 7.23777344 27.296875 7.26367188 C17.61607728 7.34617867 8.21369749 6.54545316 0 1 C0 0.67 0 0.34 0 0 Z " fill="#8CA5C7" transform="translate(193,210)"/>
<path d="M0 0 C0.33 0 0.66 0 1 0 C1.14285714 8.57142857 1.14285714 8.57142857 0 12 C0.99 12 1.98 12 3 12 C2.1875 14.9375 2.1875 14.9375 1 18 C0.01 18.33 -0.98 18.66 -2 19 C-2 19.99 -2 20.98 -2 22 C-2.66 22 -3.32 22 -4 22 C-3.01701938 14.55444468 -2.02712214 7.23972193 0 0 Z " fill="#B3C6D9" transform="translate(192,133)"/>
<path d="M0 0 C-3.63 1.98 -7.26 3.96 -11 6 C-9.68 6.66 -8.36 7.32 -7 8 C-8.76774419 8.53122363 -10.53934083 9.04964073 -12.3125 9.5625 C-13.29863281 9.85253906 -14.28476563 10.14257812 -15.30078125 10.44140625 C-18 11 -18 11 -21 10 C-18.31158141 7.74754119 -16.35358125 6.11786042 -13 5 C-12.52691406 4.52046875 -12.05382812 4.0409375 -11.56640625 3.546875 C-9.7774943 1.78026868 -8.28666246 1.11062774 -5.9375 0.25 C-4.89916016 -0.14445313 -4.89916016 -0.14445313 -3.83984375 -0.546875 C-2 -1 -2 -1 0 0 Z " fill="#BDCAE3" transform="translate(209,147)"/>
<path d="M0 0 C0.93005859 0.2165625 0.93005859 0.2165625 1.87890625 0.4375 C10.01946834 2.14381869 17.71993943 2.20113507 26 2 C24.68 2.33 23.36 2.66 22 3 C22 3.66 22 4.32 22 5 C13.69914269 5.51345509 7.48064025 4.70721995 0 1 C0 0.67 0 0.34 0 0 Z " fill="#98ABD2" transform="translate(206,266)"/>
<path d="M0 0 C0.66 0.33 1.32 0.66 2 1 C0.59106853 2.63171123 -0.82745958 4.25513945 -2.25 5.875 C-3.03890625 6.77992188 -3.8278125 7.68484375 -4.640625 8.6171875 C-6.78923202 10.7871383 -8.33277821 11.68999284 -11 13 C-11.33 13.99 -11.66 14.98 -12 16 C-12.33 15.34 -12.66 14.68 -13 14 C-12.04956626 12.66102417 -11.08940853 11.32894573 -10.125 10 C-9.32449219 8.88625 -9.32449219 8.88625 -8.5078125 7.75 C-8.01023437 7.1725 -7.51265625 6.595 -7 6 C-6.34 6 -5.68 6 -5 6 C-4.67 5.01 -4.34 4.02 -4 3 C-1.9375 1.3125 -1.9375 1.3125 0 0 Z " fill="#B3C7DA" transform="translate(53,150)"/>
<path d="M0 0 C3.03899262 1.03704496 5.25894723 2.28012375 8 4 C5.20487824 5.39756088 3.52714353 4.33799489 0.640625 3.546875 C-4.82168604 2.41562715 -10.44019132 2.29673136 -16 2 C-11.11516756 -1.25655496 -5.71102834 -0.57782169 0 0 Z " fill="#829FC2" transform="translate(109,97)"/>
<path d="M0 0 C0.99 0.33 1.98 0.66 3 1 C1.68 3.64 0.36 6.28 -1 9 C-1.33 8.34 -1.66 7.68 -2 7 C-2.99 7.33 -3.98 7.66 -5 8 C-5 7.34 -5 6.68 -5 6 C-6.32 5.67 -7.64 5.34 -9 5 C-8.43410156 4.72285156 -7.86820313 4.44570312 -7.28515625 4.16015625 C-6.55167969 3.79792969 -5.81820312 3.43570313 -5.0625 3.0625 C-3.96615234 2.52302734 -3.96615234 2.52302734 -2.84765625 1.97265625 C-1.03750973 1.13628173 -1.03750973 1.13628173 0 0 Z " fill="#9BB7CF" transform="translate(138,204)"/>
<path d="M0 0 C2.00720923 0.28674418 4.0085944 0.61866701 6 1 C6.33 2.98 6.66 4.96 7 7 C8.32 7.33 9.64 7.66 11 8 C9 9 9 9 6.125 8.4375 C2.26933695 6.663895 1.05741062 4.64003417 -1 1 C-0.67 0.67 -0.34 0.34 0 0 Z " fill="#B9D6E2" transform="translate(187,208)"/>
<path d="M0 0 C1.05960938 0.00676758 1.05960938 0.00676758 2.140625 0.01367188 C3.88545275 0.02546125 5.630237 0.04339676 7.375 0.0625 C7.375 1.3825 7.375 2.7025 7.375 4.0625 C5.375 5.8125 5.375 5.8125 3.375 7.0625 C2.715 6.7325 2.055 6.4025 1.375 6.0625 C2.365 5.0725 3.355 4.0825 4.375 3.0625 C3.23611328 2.97162109 3.23611328 2.97162109 2.07421875 2.87890625 C1.08035156 2.79511719 0.08648437 2.71132812 -0.9375 2.625 C-1.92363281 2.54378906 -2.90976563 2.46257812 -3.92578125 2.37890625 C-6.625 2.0625 -6.625 2.0625 -9.625 1.0625 C-6.55966836 -0.47016582 -3.35745728 -0.04026471 0 0 Z " fill="#7D94CC" transform="translate(229.625,149.9375)"/>
<path d="M0 0 C2.22825644 2.22825644 2.69239369 3.65761628 3.625 6.625 C3.88539063 7.44226563 4.14578125 8.25953125 4.4140625 9.1015625 C4.60742188 9.72804687 4.80078125 10.35453125 5 11 C4.01 10.67 3.02 10.34 2 10 C1.67 10.66 1.34 11.32 1 12 C-2.465 10.02 -2.465 10.02 -6 8 C-5.67 7.34 -5.34 6.68 -5 6 C-2.03 6.495 -2.03 6.495 1 7 C0.67 4.69 0.34 2.38 0 0 Z " fill="#8EA9CD" transform="translate(132,145)"/>
<path d="M0 0 C2.77042109 2.77042109 2.39796106 4.76533805 2.625 8.625 C2.69976562 9.81351563 2.77453125 11.00203125 2.8515625 12.2265625 C2.92503906 13.59941406 2.92503906 13.59941406 3 15 C2.67 14.34 2.34 13.68 2 13 C1.34 13 0.68 13 0 13 C-0.69710731 11.71349294 -1.38242876 10.42059335 -2.0625 9.125 C-2.44535156 8.40570313 -2.82820312 7.68640625 -3.22265625 6.9453125 C-3.47917969 6.30335938 -3.73570312 5.66140625 -4 5 C-3.67 4.34 -3.34 3.68 -3 3 C-2.01 4.32 -1.02 5.64 0 7 C0 4.69 0 2.38 0 0 Z " fill="#B3C4D5" transform="translate(156,131)"/>
<path d="M0 0 C0.33 0 0.66 0 1 0 C1.125 6.625 1.125 6.625 0 10 C-0.66 10 -1.32 10 -2 10 C-2.33 11.32 -2.66 12.64 -3 14 C-4.16516703 10.60548006 -3.83093313 8.65924103 -2.625 5.3125 C-2.34914062 4.52488281 -2.07328125 3.73726562 -1.7890625 2.92578125 C-1 1 -1 1 0 0 Z " fill="#D7E0EB" transform="translate(163,137)"/>
<path d="M0 0 C0.33 0.99 0.66 1.98 1 3 C1.99 3.33 2.98 3.66 4 4 C5.1875 6.5625 5.1875 6.5625 6 9 C4.68 8.34 3.36 7.68 2 7 C2.33 9.31 2.66 11.62 3 14 C0.31907309 11.31907309 0.61329743 9.60832637 0.375 5.875 C0.30023438 4.77929688 0.22546875 3.68359375 0.1484375 2.5546875 C0.09945312 1.71164063 0.05046875 0.86859375 0 0 Z " fill="#B7CDE0" transform="translate(163,222)"/>
<path d="M0 0 C2.64 0.33 5.28 0.66 8 1 C4.99559979 3.00293347 3.29006055 3.49271626 -0.1875 4.125 C-1.08855469 4.29257813 -1.98960938 4.46015625 -2.91796875 4.6328125 C-3.60503906 4.75398437 -4.29210937 4.87515625 -5 5 C-5.33 4.34 -5.66 3.68 -6 3 C-4.02 2.34 -2.04 1.68 0 1 C0 0.67 0 0.34 0 0 Z " fill="#ECF0F5" transform="translate(122,183)"/>
<path d="M0 0 C-0.66 0 -1.32 0 -2 0 C-2 0.66 -2 1.32 -2 2 C-0.700625 2.12375 0.59875 2.2475 1.9375 2.375 C4.15234375 2.5859375 4.15234375 2.5859375 6 3 C6.33 3.66 6.66 4.32 7 5 C5.22773547 4.71715982 3.457212 4.42339502 1.6875 4.125 C0.70136719 3.96257812 -0.28476563 3.80015625 -1.30078125 3.6328125 C-4 3 -4 3 -7 1 C-3.375 -1.125 -3.375 -1.125 0 0 Z " fill="#688FC3" transform="translate(208,182)"/>
<path d="M0 0 C0.33 0.66 0.66 1.32 1 2 C0.67 2.99 0.34 3.98 0 5 C1.65 4.67 3.3 4.34 5 4 C0.5 8 0.5 8 -4 8 C-2.87548273 5.0280615 -1.77706209 2.66559313 0 0 Z " fill="#758BB4" transform="translate(185,155)"/>
<path d="M0 0 C0.99 0.33 1.98 0.66 3 1 C3.625 3.3125 3.625 3.3125 4 6 C3.01 7.485 3.01 7.485 2 9 C1.67 7.35 1.34 5.7 1 4 C-0.32 5.32 -1.64 6.64 -3 8 C-1.125 1.125 -1.125 1.125 0 0 Z " fill="#9DB1D0" transform="translate(129,217)"/>
<path d="M0 0 C0.66 0.33 1.32 0.66 2 1 C1.67 1.66 1.34 2.32 1 3 C1.99 3.66 2.98 4.32 4 5 C1.03 5 -1.94 5 -5 5 C-5.33 4.34 -5.66 3.68 -6 3 C-4.03533587 1.93224776 -2.03144641 0.93446535 0 0 Z " fill="#AEC1D4" transform="translate(206,176)"/>
<path d="M0 0 C4.40114397 0.50298788 6.71195019 2.08772731 10 5 C9.195625 4.814375 8.39125 4.62875 7.5625 4.4375 C6.716875 4.293125 5.87125 4.14875 5 4 C3.84188612 5.05270463 3.84188612 5.05270463 3 7 C0 2.25 0 2.25 0 0 Z " fill="#65879F" transform="translate(181,204)"/>
<path d="M0 0 C0.66 0 1.32 0 2 0 C6.59225513 9.22551253 6.59225513 9.22551253 6 15 C5.67 15 5.34 15 5 15 C3.33333333 10 1.66666667 5 0 0 Z " fill="#7189AC" transform="translate(185,212)"/>
<path d="M0 0 C-0.33 0.99 -0.66 1.98 -1 3 C-0.34 3.33 0.32 3.66 1 4 C-0.98 4.66 -2.96 5.32 -5 6 C-4.34 4.68 -3.68 3.36 -3 2 C-4.65 2 -6.3 2 -8 2 C-8 1.67 -8 1.34 -8 1 C-2.25 -1.125 -2.25 -1.125 0 0 Z " fill="#8FA8D2" transform="translate(129,211)"/>
<path d="M0 0 C0.66 0.33 1.32 0.66 2 1 C0.38405168 3.04119788 -1.2856382 5.04072937 -3 7 C-3.66 7 -4.32 7 -5 7 C-5 7.66 -5 8.32 -5 9 C-5.66 8.67 -6.32 8.34 -7 8 C-4.69 5.36 -2.38 2.72 0 0 Z " fill="#B5C0DD" transform="translate(137,65)"/>
<path d="M0 0 C2.0625 2.3125 2.0625 2.3125 4 5 C3.67 5.99 3.34 6.98 3 8 C1.35 7.01 -0.3 6.02 -2 5 C-1.34 4.67 -0.68 4.34 0 4 C0 2.68 0 1.36 0 0 Z " fill="#7FA0CB" transform="translate(137,156)"/>
<path d="M0 0 C2.00720923 0.28674418 4.0085944 0.61866701 6 1 C5.01 1.66 4.02 2.32 3 3 C3.99 4.485 3.99 4.485 5 6 C4.01 6.495 4.01 6.495 3 7 C1.68 5.02 0.36 3.04 -1 1 C-0.67 0.67 -0.34 0.34 0 0 Z " fill="#9AAFCD" transform="translate(187,208)"/>
</svg>
